<svg xmlns="http://www.w3.org/2000/svg" width="904" height="656.437" viewBox="0 0 904 656.437">
  <g id="usage_guides" transform="translate(-79.05 -183.844)">
    <g id="Group_213" data-name="Group 213" transform="translate(121.625 210.252)">
      <g id="Group_212" data-name="Group 212">
        <g id="initial">
          <path id="Path_287" data-name="Path 287" d="M240.474,246.955a65.9,65.9,0,0,1-7.76,6.628,64.992,64.992,0,0,0,16.882-6.015c1.526-.792,3.016-1.649,4.466-2.554q-.849,1.47-1.777,2.889a65.584,65.584,0,0,1-74.02,26.983A103.8,103.8,0,0,1,182.351,265q.818-1.739,1.7-3.438c.334-.649.677-1.3,1.031-1.94q-1.182.364-2.354.757-3.872,1.291-7.6,2.868a104.558,104.558,0,0,0-9.5,4.585,64.549,64.549,0,0,1,1.936-7.409,65.562,65.562,0,0,1,62.293-45.217c.5,0,1,0,1.49.016a65.183,65.183,0,0,1,25.163,5.637c-.112.343-.227.685-.347,1.024A65.386,65.386,0,0,1,240.474,246.955Z" transform="translate(-135.311 -215.21)" fill="#80bc00"/>
          <path id="Path_288" data-name="Path 288" d="M173.878,273.67A106.165,106.165,0,0,0,159.5,300.3q-.287.8-.57,1.6a105.06,105.06,0,0,0-4.525,17.981,107.019,107.019,0,0,0-21.61-21.63q-1.566-1.164-3.175-2.282c1.665.1,3.314.232,4.956.4a106.087,106.087,0,0,1,12.81,2.147,106,106,0,0,1,11.437-12.894q2.562-2.461,5.286-4.74a106.165,106.165,0,0,1,9.7-7.237C173.826,273.659,173.854,273.663,173.878,273.67Z" transform="translate(-129.618 -224.447)" fill="#80bc00"/>
        </g>
        <g id="Group_210" data-name="Group 210" transform="translate(0 95.758)">
          <path id="Path_289" data-name="Path 289" d="M132.484,334.98l-2.794-.471V332.26H141.3v2.249l-3.481.471v21.652l7.761-.327,2.285-6.782,2.938.4-1.124,9.285H129.618v-2.176l2.866-.363Z" transform="translate(-129.618 -329.468)" fill="#80bc00"/>
          <path id="Path_290" data-name="Path 290" d="M159.268,357.974a11.628,11.628,0,0,1-2.339-7.671,12.348,12.348,0,0,1,1.215-5.658,8.6,8.6,0,0,1,3.427-3.663,10.1,10.1,0,0,1,5.114-1.269,7.687,7.687,0,0,1,5.585,1.9,7.446,7.446,0,0,1,2.032,5.422,15.945,15.945,0,0,1-.29,3.555H162.224a8.893,8.893,0,0,0,1.559,5.132,4.786,4.786,0,0,0,4.026,1.832,9.761,9.761,0,0,0,2.92-.472,7.91,7.91,0,0,0,2.375-1.125l.907,1.995a8.881,8.881,0,0,1-3.173,1.941,11.758,11.758,0,0,1-4.443.888Q161.607,360.784,159.268,357.974Zm9.956-9.557q.072-1.015.072-1.559,0-4.823-3.228-4.824a3.16,3.16,0,0,0-2.757,1.415q-.979,1.414-1.088,4.968Z" transform="translate(-133.935 -330.646)" fill="#80bc00"/>
          <path id="Path_291" data-name="Path 291" d="M183.853,349.773a19.418,19.418,0,0,1,8.578-1.7v-.833a6.934,6.934,0,0,0-.309-2.321A2.239,2.239,0,0,0,191,343.661a5.379,5.379,0,0,0-2.376-.417,10.431,10.431,0,0,0-3.191.454,23.555,23.555,0,0,0-2.938,1.179l-1.125-2.321a9.631,9.631,0,0,1,1.831-1.125,16.485,16.485,0,0,1,3.066-1.143,13.743,13.743,0,0,1,3.662-.489,10.694,10.694,0,0,1,4.371.725,4.392,4.392,0,0,1,2.267,2.321,10.983,10.983,0,0,1,.69,4.28v11.1h1.958v2.031a20.288,20.288,0,0,1-2.067.363,17.97,17.97,0,0,1-2.358.181,2.649,2.649,0,0,1-1.649-.362,1.963,1.963,0,0,1-.418-1.487v-.98a9.794,9.794,0,0,1-2.538,1.959,7.1,7.1,0,0,1-3.518.87,6.677,6.677,0,0,1-3.064-.707,5.469,5.469,0,0,1-2.231-2.067,6.156,6.156,0,0,1-.834-3.283A5.321,5.321,0,0,1,183.853,349.773Zm6.873,7.562a6.794,6.794,0,0,0,1.7-1.106V350.28a8.688,8.688,0,0,0-4.878,1.106,3.33,3.33,0,0,0-1.614,2.847,3.834,3.834,0,0,0,.816,2.647,2.849,2.849,0,0,0,2.23.907A4.229,4.229,0,0,0,190.726,357.335Z" transform="translate(-137.666 -330.66)" fill="#80bc00"/>
          <path id="Path_292" data-name="Path 292" d="M208.883,358.013a7.369,7.369,0,0,1-2.829-3.319A13.252,13.252,0,0,1,205,349.072a12.343,12.343,0,0,1,1.251-5.567,9.646,9.646,0,0,1,3.681-4.008,10.979,10.979,0,0,1,5.84-1.487,11.4,11.4,0,0,1,2.611.29v-6.129l-3.554-.508v-1.995l7.471-.725h.109l1.015.761v26.766h1.958v2.067a21.956,21.956,0,0,1-4.316.544,2.736,2.736,0,0,1-1.65-.381,1.835,1.835,0,0,1-.489-1.5v-1.016a7.078,7.078,0,0,1-2.576,2.085,7.911,7.911,0,0,1-7.471-.253Zm8.034-2.43a4.537,4.537,0,0,0,1.468-1.18V341.2a2.028,2.028,0,0,0-1.069-.617,5.9,5.9,0,0,0-1.76-.254,4.317,4.317,0,0,0-3.717,2.013q-1.4,2.013-1.4,6.438a10.041,10.041,0,0,0,1.2,5.5,3.642,3.642,0,0,0,3.156,1.8A4.476,4.476,0,0,0,216.916,355.583Z" transform="translate(-141.533 -328.944)" fill="#80bc00"/>
          <path id="Path_293" data-name="Path 293" d="M234.307,357.974a11.628,11.628,0,0,1-2.339-7.671,12.348,12.348,0,0,1,1.215-5.658,8.6,8.6,0,0,1,3.427-3.663,10.1,10.1,0,0,1,5.114-1.269,7.688,7.688,0,0,1,5.585,1.9,7.442,7.442,0,0,1,2.031,5.422,15.957,15.957,0,0,1-.29,3.555H237.263a8.881,8.881,0,0,0,1.559,5.132,4.786,4.786,0,0,0,4.026,1.832,9.751,9.751,0,0,0,2.919-.472,7.905,7.905,0,0,0,2.376-1.125l.907,1.995a8.889,8.889,0,0,1-3.173,1.941,11.758,11.758,0,0,1-4.443.888Q236.646,360.784,234.307,357.974Zm9.956-9.557q.072-1.015.072-1.559,0-4.823-3.228-4.824a3.159,3.159,0,0,0-2.757,1.415q-.979,1.414-1.088,4.968Z" transform="translate(-145.795 -330.646)" fill="#80bc00"/>
          <path id="Path_294" data-name="Path 294" d="M256.048,358.246l2.394-.29V343.666l-2.322-.653v-2.5l5.623-.761h.109l.907.725v.8l-.109,2.938h.109a5.971,5.971,0,0,1,1.2-1.8,9.19,9.19,0,0,1,2.376-1.886,6.158,6.158,0,0,1,3.1-.816,3.937,3.937,0,0,1,1.378.217v5.44a4.508,4.508,0,0,0-2.648-.761,7.659,7.659,0,0,0-4.606,1.414v11.9l4.207.327v2.14H256.048Z" transform="translate(-149.601 -330.646)" fill="#80bc00"/>
        </g>
        <g id="Group_211" data-name="Group 211" transform="translate(0.033 130.707)">
          <path id="Path_295" data-name="Path 295" d="M135.045,376.209l-5.32-.887v-4.229h10.163q2.319,0,6-.273.885-.067,2.114-.136t2.865-.068q10.3,0,14.427,2.9t4.127,8.629a12.138,12.138,0,0,1-3.035,8.424,12.944,12.944,0,0,1-7.947,4.126q6.753-.067,10.607,3.07A10.638,10.638,0,0,1,172.9,406.5a14.305,14.305,0,0,1-4.98,11.392q-4.98,4.3-16.644,4.3-3.069,0-5.661-.205-.683,0-2.32-.1t-3.343-.1h-10.3v-4.093l5.388-.683Zm12.96,17.054h3.206q4.16,0,6.208-2.592t2.046-7.3q0-4.5-2.114-6.549t-7.026-2.046q-1.3,0-5.388.273v18.145Q145.686,393.263,148.005,393.263Zm2.933,24.624q5.8,0,8.39-2.729t2.592-7.913q0-4.978-2.353-7.128t-7.469-2.149q-5.731,0-7.162.136v19.167A19.191,19.191,0,0,0,150.939,417.887Z" transform="translate(-129.657 -370.48)" fill="#80bc00"/>
          <path id="Path_296" data-name="Path 296" d="M193.137,376.3l-5.8-.887v-4.229h21.828v4.229l-6,.887v40.79l6,.751v4.024H187.339v-4.093l5.8-.683Z" transform="translate(-138.774 -370.569)" fill="#80bc00"/>
          <path id="Path_297" data-name="Path 297" d="M224.866,415.542q-5.525-6.957-5.525-18.962a31.029,31.029,0,0,1,2.9-13.779,21.43,21.43,0,0,1,8.151-9.14,22.71,22.71,0,0,1,12.073-3.206q11.255,0,16.883,6.65t5.628,18.588a31.68,31.68,0,0,1-2.967,14.018,21.928,21.928,0,0,1-20.5,12.79Q230.391,422.5,224.866,415.542Zm8.595-35.4q-3.138,5.527-3.137,16.371,0,10.711,3.035,16.269t8.7,5.559q5.524,0,8.662-5.832t3.138-16.814q0-10.641-3-15.859a9.48,9.48,0,0,0-8.663-5.218Q236.6,374.615,233.46,380.14Z" transform="translate(-143.832 -370.454)" fill="#80bc00"/>
        </g>
      </g>
    </g>
    <g id="Group_217" data-name="Group 217" transform="translate(836.288 183.844)">
      <g id="Group_216" data-name="Group 216">
        <g id="initial-2" data-name="initial">
          <path id="Path_298" data-name="Path 298" d="M1064.36,214.1a65.875,65.875,0,0,1-4.667,9.076,65,65,0,0,0,13.34-11.968c1.111-1.312,2.165-2.669,3.163-4.056-.151,1.121-.337,2.235-.548,3.346a65.585,65.585,0,0,1-58.258,53.039,104.1,104.1,0,0,1,.034-10.694c.066-1.28.156-2.552.274-3.827.063-.728.134-1.459.219-2.187q-.957.786-1.892,1.593-3.093,2.662-5.945,5.536a104.834,104.834,0,0,0-7.048,7.844,65.121,65.121,0,0,1,1.256-30.159,65.369,65.369,0,0,1,38.218-42.893c.46-.189.923-.374,1.385-.55a65.17,65.17,0,0,1,25.421-4.328c.027.36.05.72.067,1.079A65.4,65.4,0,0,1,1064.36,214.1Z" transform="translate(-982.139 -183.844)" fill="#80bc00"/>
          <path id="Path_299" data-name="Path 299" d="M1010.938,266.425a106.19,106.19,0,0,0-3.205,30.1c.024.563.049,1.129.08,1.7a104.969,104.969,0,0,0,2.632,18.354,106.934,106.934,0,0,0-28.2-11.818q-1.889-.485-3.8-.908,2.365-.815,4.738-1.507a106.094,106.094,0,0,1,12.669-2.871,105.865,105.865,0,0,1,5.692-16.269q1.438-3.249,3.094-6.39a106.116,106.116,0,0,1,6.226-10.374C1010.885,266.433,1010.912,266.427,1010.938,266.425Z" transform="translate(-978.442 -196.897)" fill="#006d46"/>
        </g>
        <g id="Group_214" data-name="Group 214" transform="translate(10.315 91.996)">
          <path id="Path_300" data-name="Path 300" d="M994.31,341.169l-2.763.623-.853-2.08,10.739-4.4.853,2.08-3.043,1.757,8.211,20.035,7.058-3.246-.458-7.142,2.869-.744,2.48,9.017-18.558,7.606-.825-2.014,2.514-1.422Z" transform="translate(-990.694 -299.78)" fill="#006d46"/>
          <path id="Path_301" data-name="Path 301" d="M1028.357,352.276a11.629,11.629,0,0,1-5.074-6.21,12.349,12.349,0,0,1-1.021-5.7,8.593,8.593,0,0,1,1.783-4.69,10.088,10.088,0,0,1,4.25-3.113,7.686,7.686,0,0,1,5.89-.357,7.442,7.442,0,0,1,3.935,4.247,15.9,15.9,0,0,1,1.079,3.4l-10.906,4.471a8.889,8.889,0,0,0,3.39,4.157,4.785,4.785,0,0,0,4.419.168,9.742,9.742,0,0,0,2.523-1.543,7.931,7.931,0,0,0,1.771-1.941l1.6,1.5a8.9,8.9,0,0,1-2.2,3,11.747,11.747,0,0,1-3.774,2.507Q1031.587,353.99,1028.357,352.276Zm5.588-12.618q-.318-.966-.525-1.47-1.828-4.463-4.816-3.24a3.162,3.162,0,0,0-2.014,2.354q-.37,1.681.877,5.01Z" transform="translate(-995.678 -299.221)" fill="#006d46"/>
          <path id="Path_302" data-name="Path 302" d="M1047.781,335.352a19.419,19.419,0,0,1,7.29-4.83l-.316-.772a6.944,6.944,0,0,0-1.166-2.03,2.233,2.233,0,0,0-1.515-.732,5.372,5.372,0,0,0-2.357.514,10.458,10.458,0,0,0-2.781,1.63,23.6,23.6,0,0,0-2.271,2.205l-1.921-1.722a9.575,9.575,0,0,1,1.269-1.734,16.461,16.461,0,0,1,2.4-2.22,13.735,13.735,0,0,1,3.2-1.841,10.7,10.7,0,0,1,4.319-.987,4.389,4.389,0,0,1,2.978,1.288,10.994,10.994,0,0,1,2.26,3.7l4.209,10.269,1.813-.743.77,1.879a20.428,20.428,0,0,1-1.775,1.12,18,18,0,0,1-2.113,1.062,2.649,2.649,0,0,1-1.664.29q-.524-.177-.951-1.218l-.371-.906a9.794,9.794,0,0,1-1.606,2.775,7.091,7.091,0,0,1-2.925,2.139,6.686,6.686,0,0,1-3.1.508,5.47,5.47,0,0,1-2.847-1.067,6.163,6.163,0,0,1-2.017-2.72A5.321,5.321,0,0,1,1047.781,335.352Zm9.227,4.391a6.809,6.809,0,0,0,1.158-1.67l-2.256-5.5a8.7,8.7,0,0,0-4.094,2.874,3.332,3.332,0,0,0-.413,3.247,3.833,3.833,0,0,0,1.759,2.14,2.853,2.853,0,0,0,2.408-.007A4.223,4.223,0,0,0,1057.007,339.743Z" transform="translate(-998.921 -297.807)" fill="#006d46"/>
          <path id="Path_303" data-name="Path 303" d="M1074.973,333.1a7.359,7.359,0,0,1-3.877-2,13.251,13.251,0,0,1-3.1-4.8,12.343,12.343,0,0,1-.954-5.626,9.647,9.647,0,0,1,1.887-5.1,10.976,10.976,0,0,1,4.839-3.59,11.377,11.377,0,0,1,2.527-.721l-2.325-5.671-3.481.877-.757-1.846,6.639-3.5.1-.041,1.227.319,10.151,24.767,1.812-.743.785,1.913a22.007,22.007,0,0,1-3.788,2.14,2.737,2.737,0,0,1-1.671.274q-.6-.167-1.024-1.207l-.385-.94a7.078,7.078,0,0,1-1.592,2.906,7.905,7.905,0,0,1-7.009,2.6Zm6.511-5.295a4.532,4.532,0,0,0,.912-1.648l-5.006-12.215a2.025,2.025,0,0,0-1.224-.165,5.889,5.889,0,0,0-1.724.432,4.32,4.32,0,0,0-2.677,3.273q-.528,2.392,1.15,6.486a10.041,10.041,0,0,0,3.191,4.63,3.641,3.641,0,0,0,3.6.465A4.456,4.456,0,0,0,1081.484,327.8Z" transform="translate(-1002.756 -294.368)" fill="#006d46"/>
          <path id="Path_304" data-name="Path 304" d="M1097.791,323.819a11.621,11.621,0,0,1-5.073-6.211,12.335,12.335,0,0,1-1.021-5.7,8.6,8.6,0,0,1,1.781-4.689,10.1,10.1,0,0,1,4.251-3.114,7.684,7.684,0,0,1,5.89-.356,7.446,7.446,0,0,1,3.936,4.247,15.913,15.913,0,0,1,1.079,3.4l-10.906,4.47a8.886,8.886,0,0,0,3.389,4.158,4.787,4.787,0,0,0,4.42.168,9.74,9.74,0,0,0,2.522-1.544,7.893,7.893,0,0,0,1.771-1.941l1.6,1.5a8.891,8.891,0,0,1-2.2,3,11.747,11.747,0,0,1-3.775,2.507Q1101.022,325.533,1097.791,323.819Zm5.588-12.618q-.318-.967-.525-1.471-1.829-4.462-4.817-3.239a3.16,3.16,0,0,0-2.014,2.354q-.369,1.681.878,5.01Z" transform="translate(-1006.653 -294.724)" fill="#006d46"/>
          <path id="Path_305" data-name="Path 305" d="M1117.524,315.656l2.1-1.176-5.42-13.223-2.4.276-.949-2.315,4.913-2.837.1-.041,1.114.327.3.738,1.014,2.76.1-.041a5.96,5.96,0,0,1,.426-2.115,9.2,9.2,0,0,1,1.483-2.646,6.161,6.161,0,0,1,2.561-1.931,3.92,3.92,0,0,1,1.357-.322l2.064,5.034a4.5,4.5,0,0,0-2.739.3,7.653,7.653,0,0,0-3.725,3.055l4.511,11.007,4.017-1.293.812,1.98-10.84,4.442Z" transform="translate(-1009.688 -293.11)" fill="#006d46"/>
        </g>
        <g id="Group_215" data-name="Group 215" transform="translate(22.77 122.094)">
          <path id="Path_306" data-name="Path 306" d="M1012.35,377.1l-5.26,1.2-1.6-3.913,9.4-3.854q2.145-.879,5.451-2.529.794-.4,1.9-.928t2.625-1.15q9.53-3.906,14.449-2.789t7.091,6.419a12.135,12.135,0,0,1,.386,8.946,12.94,12.94,0,0,1-5.788,6.832q6.224-2.623,10.978-1.182a10.637,10.637,0,0,1,6.878,6.618,14.306,14.306,0,0,1-.288,12.429q-2.978,5.864-13.771,10.288-2.84,1.164-5.316,1.958-.632.259-2.185.786t-3.131,1.173l-9.531,3.906-1.552-3.787,4.727-2.675Zm18.459,10.865,2.966-1.216q3.85-1.577,4.761-4.753t-.875-7.529q-1.707-4.165-4.44-5.257t-7.278.771q-1.2.491-4.882,2.3l6.881,16.788Q1028.662,388.842,1030.808,387.962Zm12.052,21.672q5.364-2.2,6.728-5.707t-.6-8.3q-1.888-4.607-4.881-5.7t-7.726.844q-5.3,2.174-6.576,2.842l7.269,17.736A19.209,19.209,0,0,0,1042.861,409.635Z" transform="translate(-1005.486 -334.237)" fill="#80bc00"/>
          <path id="Path_307" data-name="Path 307" d="M1066.09,355.676l-5.7,1.379-1.6-3.913,20.2-8.278,1.6,3.913-5.218,3.1,15.469,37.744,5.839-1.582,1.527,3.724-20.2,8.278-1.552-3.787,5.106-2.831Z" transform="translate(-1013.91 -331.389)" fill="#80bc00"/>
          <path id="Path_308" data-name="Path 308" d="M1111.7,379.451q-7.75-4.342-12.3-15.451a31.037,31.037,0,0,1-2.543-13.849,21.442,21.442,0,0,1,4.076-11.549,22.712,22.712,0,0,1,9.956-7.545q10.414-4.269,18.144-.249t12.255,15.066a31.656,31.656,0,0,1,2.57,14.1,21.923,21.923,0,0,1-14.116,19.608Q1119.454,383.794,1111.7,379.451Zm-5.473-36.017q-.81,6.3,3.3,16.338,4.061,9.91,8.978,13.9t10.156,1.846q5.112-2.1,5.8-8.681T1131,350.09q-4.035-9.847-8.792-13.537a9.482,9.482,0,0,0-9.995-1.543Q1107.037,337.132,1106.23,343.434Z" transform="translate(-1019.919 -328.859)" fill="#80bc00"/>
        </g>
      </g>
    </g>
    <g id="Group_222" data-name="Group 222" transform="translate(132.808 580.334)">
      <g id="Group_221" data-name="Group 221" transform="translate(0)">
        <g id="initial-3" data-name="initial">
          <path id="Path_309" data-name="Path 309" d="M253.756,686.51a65.914,65.914,0,0,1-7.76,6.629,65.049,65.049,0,0,0,16.882-6.015c1.526-.793,3.016-1.649,4.466-2.554-.566.98-1.159,1.94-1.776,2.888a65.583,65.583,0,0,1-74.02,26.984,103.907,103.907,0,0,1,4.087-9.884q.818-1.738,1.7-3.438c.334-.649.677-1.3,1.031-1.94q-1.182.365-2.354.757-3.872,1.291-7.6,2.869a104.754,104.754,0,0,0-9.5,4.584,65.121,65.121,0,0,1,12.6-27.43,65.369,65.369,0,0,1,51.629-25.2c.5,0,1,0,1.49.016a65.184,65.184,0,0,1,25.163,5.637q-.168.514-.347,1.024A65.383,65.383,0,0,1,253.756,686.51Z" transform="translate(-148.593 -654.766)" fill="#80bc00"/>
          <path id="Path_310" data-name="Path 310" d="M187.16,713.226a106.171,106.171,0,0,0-14.38,26.633q-.287.794-.57,1.6a105.037,105.037,0,0,0-4.525,17.981,106.956,106.956,0,0,0-21.61-21.63q-1.566-1.166-3.175-2.283c1.665.1,3.314.231,4.956.4a105.919,105.919,0,0,1,12.81,2.147A106.006,106.006,0,0,1,172.1,725.184q2.562-2.461,5.286-4.74a106.317,106.317,0,0,1,9.7-7.238C187.108,713.214,187.136,713.218,187.16,713.226Z" transform="translate(-142.9 -664.003)" fill="#006d46"/>
        </g>
        <g id="Group_220" data-name="Group 220" transform="translate(0.269 97.984)">
          <g id="Group_218" data-name="Group 218">
            <path id="Path_311" data-name="Path 311" d="M143.22,771.144H149.1v21.774h12.994v4.921H143.22Z" transform="translate(-143.22 -771.144)" fill="#80bc00"/>
            <path id="Path_312" data-name="Path 312" d="M174.222,790.767c.141,3.364,1.771,4.886,4.744,4.886,2.124,0,3.824-1.31,4.178-2.513h4.674c-1.487,4.567-4.674,6.514-9.064,6.514-6.09,0-9.843-4.178-9.843-10.161,0-5.807,4-10.232,9.843-10.232,6.586,0,9.772,5.559,9.383,11.507Zm8.6-3.4c-.461-2.691-1.628-4.107-4.213-4.107a4.163,4.163,0,0,0-4.391,4.107Z" transform="translate(-147.281 -772.427)" fill="#80bc00"/>
            <path id="Path_313" data-name="Path 313" d="M196.172,785.74c.284-4.957,4.744-6.48,9.064-6.48,3.859,0,8.5.885,8.5,5.523v10.055a9.726,9.726,0,0,0,.673,4.284h-5.382a8.434,8.434,0,0,1-.389-1.877,8.766,8.766,0,0,1-6.48,2.408c-3.683,0-6.586-1.841-6.586-5.807,0-4.354,3.293-5.417,6.586-5.877,3.222-.461,6.267-.354,6.267-2.514,0-2.3-1.558-2.62-3.434-2.62-2.018,0-3.328.814-3.505,2.9Zm12.25,3.929c-.885.779-2.762.814-4.425,1.133-1.629.318-3.116.885-3.116,2.832,0,1.983,1.522,2.443,3.257,2.443,4.142,0,4.284-3.257,4.284-4.426Z" transform="translate(-151.494 -772.427)" fill="#80bc00"/>
            <path id="Path_314" data-name="Path 314" d="M241.492,797.84h-5.063v-2.479h-.071c-1.133,2.125-3.505,3.01-6.337,3.01-3.859,0-8-3.116-8-10.2s4.142-10.2,8-10.2a7.171,7.171,0,0,1,6.089,2.9h.072v-9.736h5.311Zm-9.631-3.47c3.116,0,4.5-2.974,4.5-6.16,0-3.258-1.381-6.231-4.5-6.231-3.151,0-4.532,2.974-4.532,6.231C227.329,791.4,228.711,794.37,231.861,794.37Z" transform="translate(-155.675 -771.144)" fill="#80bc00"/>
            <path id="Path_315" data-name="Path 315" d="M255.46,790.767c.141,3.364,1.771,4.886,4.744,4.886,2.124,0,3.824-1.31,4.178-2.513h4.674c-1.487,4.567-4.674,6.514-9.064,6.514-6.089,0-9.842-4.178-9.842-10.161,0-5.807,4-10.232,9.842-10.232,6.586,0,9.772,5.559,9.383,11.507Zm8.6-3.4c-.46-2.691-1.628-4.107-4.213-4.107a4.162,4.162,0,0,0-4.39,4.107Z" transform="translate(-160.121 -772.427)" fill="#80bc00"/>
            <path id="Path_316" data-name="Path 316" d="M278.027,779.791h5.063V783.4h.071a6.806,6.806,0,0,1,6.161-4.142,3.407,3.407,0,0,1,1.169.212v4.922a10.286,10.286,0,0,0-1.912-.178c-3.895,0-5.24,2.8-5.24,6.2v8.71h-5.311Z" transform="translate(-164.527 -772.427)" fill="#80bc00"/>
          </g>
          <g id="Group_219" data-name="Group 219" transform="translate(0.019 31.303)">
            <path id="Path_317" data-name="Path 317" d="M143.242,809.809H167.9c9.931,0,16.667,3.264,16.667,12.987,0,5.139-2.57,8.75-7.083,10.9,6.39,1.876,9.584,6.736,9.584,13.265,0,10.7-9.028,15.21-18.473,15.21H143.242Zm11.529,21.182h11.6c4.1,0,7.084-1.805,7.084-6.181,0-5-3.82-6.042-7.918-6.042H154.771Zm0,22.224h12.292c4.514,0,8.472-1.458,8.472-6.875,0-5.347-3.333-7.5-8.264-7.5h-12.5Z" transform="translate(-143.242 -808.559)" fill="#006d46"/>
            <path id="Path_318" data-name="Path 318" d="M206.673,809.809H218.2v52.365H206.673Z" transform="translate(-153.268 -808.559)" fill="#006d46"/>
            <path id="Path_319" data-name="Path 319" d="M257.761,808.324c16.251,0,25.765,12.084,25.765,27.641,0,15.14-9.514,27.224-25.765,27.224S232,851.1,232,835.965C232,820.408,241.51,808.324,257.761,808.324Zm0,45.212c10.348,0,14.236-8.82,14.236-17.57,0-9.167-3.889-17.918-14.236-17.918s-14.237,8.751-14.237,17.918C243.524,844.715,247.414,853.536,257.761,853.536Z" transform="translate(-157.27 -808.324)" fill="#006d46"/>
          </g>
        </g>
      </g>
    </g>
    <g id="Group_226" data-name="Group 226" transform="translate(461.05 552.076)">
      <g id="Group_225" data-name="Group 225">
        <g id="initial-4" data-name="initial">
          <path id="Path_320" data-name="Path 320" d="M685.554,662.812a86.217,86.217,0,0,1-10.172,8.688,85.237,85.237,0,0,0,22.128-7.884c2-1.039,3.953-2.161,5.853-3.347q-1.113,1.926-2.329,3.785a85.962,85.962,0,0,1-97.022,35.369,136.259,136.259,0,0,1,5.357-12.954q1.072-2.28,2.235-4.506c.439-.851.887-1.7,1.352-2.543q-1.551.477-3.086.992-5.074,1.692-9.962,3.759a137.41,137.41,0,0,0-12.448,6.01A85.891,85.891,0,0,1,671.65,621.2c.653,0,1.306.005,1.953.021a85.43,85.43,0,0,1,32.982,7.388c-.146.45-.3.9-.454,1.342A85.715,85.715,0,0,1,685.554,662.812Z" transform="translate(-547.711 -621.203)" fill="#80bc00"/>
          <path id="Path_321" data-name="Path 321" d="M598.263,697.83a139.163,139.163,0,0,0-18.849,34.909c-.251.695-.5,1.394-.747,2.1a137.7,137.7,0,0,0-5.932,23.569,140.138,140.138,0,0,0-28.326-28.352q-2.052-1.528-4.162-2.992,3.275.188,6.5.528a138.891,138.891,0,0,1,16.792,2.814,138.863,138.863,0,0,1,14.991-16.9q3.359-3.227,6.928-6.214a139.33,139.33,0,0,1,12.708-9.487C598.2,697.815,598.232,697.82,598.263,697.83Z" transform="translate(-540.249 -633.31)" fill="#006d46"/>
        </g>
        <g id="Group_223" data-name="Group 223" transform="translate(22.733 125.415)">
          <path id="Path_322" data-name="Path 322" d="M570.115,776.2l-2.793-.471v-2.249h11.606v2.249l-3.482.471v21.652l7.762-.327,2.285-6.782,2.938.4-1.125,9.284H567.25v-2.176l2.865-.363Z" transform="translate(-567.25 -770.686)" fill="#006d46"/>
          <path id="Path_323" data-name="Path 323" d="M596.9,799.193a11.628,11.628,0,0,1-2.34-7.671,12.357,12.357,0,0,1,1.215-5.658A8.6,8.6,0,0,1,599.2,782.2a10.091,10.091,0,0,1,5.114-1.269,7.685,7.685,0,0,1,5.585,1.9,7.448,7.448,0,0,1,2.031,5.422,15.888,15.888,0,0,1-.29,3.555H599.855a8.889,8.889,0,0,0,1.56,5.132,4.786,4.786,0,0,0,4.025,1.832,9.733,9.733,0,0,0,2.92-.472,7.892,7.892,0,0,0,2.375-1.124l.907,1.995a8.9,8.9,0,0,1-3.173,1.941,11.755,11.755,0,0,1-4.442.888Q599.239,802,596.9,799.193Zm9.955-9.557q.073-1.016.073-1.559,0-4.823-3.228-4.824a3.159,3.159,0,0,0-2.756,1.414q-.98,1.414-1.089,4.969Z" transform="translate(-571.567 -771.864)" fill="#006d46"/>
          <path id="Path_324" data-name="Path 324" d="M621.485,790.992a19.415,19.415,0,0,1,8.577-1.705v-.834a6.934,6.934,0,0,0-.308-2.32,2.237,2.237,0,0,0-1.125-1.252,5.377,5.377,0,0,0-2.375-.417,10.457,10.457,0,0,0-3.192.453,23.7,23.7,0,0,0-2.938,1.18L619,783.774a9.623,9.623,0,0,1,1.831-1.124,16.506,16.506,0,0,1,3.065-1.143,13.75,13.75,0,0,1,3.663-.489,10.7,10.7,0,0,1,4.371.725,4.391,4.391,0,0,1,2.266,2.321,10.994,10.994,0,0,1,.689,4.28v11.1h1.959v2.031a20.337,20.337,0,0,1-2.068.363,17.955,17.955,0,0,1-2.357.181,2.654,2.654,0,0,1-1.65-.362,1.967,1.967,0,0,1-.417-1.487v-.98a9.784,9.784,0,0,1-2.539,1.958,7.086,7.086,0,0,1-3.518.871,6.683,6.683,0,0,1-3.065-.707,5.472,5.472,0,0,1-2.23-2.067,6.155,6.155,0,0,1-.834-3.283A5.32,5.32,0,0,1,621.485,790.992Zm6.873,7.561a6.8,6.8,0,0,0,1.7-1.105V791.5a8.692,8.692,0,0,0-4.878,1.106,3.33,3.33,0,0,0-1.614,2.847,3.832,3.832,0,0,0,.817,2.648,2.849,2.849,0,0,0,2.23.907A4.22,4.22,0,0,0,628.358,798.553Z" transform="translate(-575.298 -771.878)" fill="#006d46"/>
          <path id="Path_325" data-name="Path 325" d="M646.514,799.231a7.359,7.359,0,0,1-2.83-3.318,13.252,13.252,0,0,1-1.052-5.622,12.344,12.344,0,0,1,1.252-5.567,9.63,9.63,0,0,1,3.681-4.008,10.968,10.968,0,0,1,5.839-1.487,11.412,11.412,0,0,1,2.612.29V773.39l-3.555-.508v-1.995l7.471-.726h.109l1.015.762V797.69h1.959v2.067a21.958,21.958,0,0,1-4.317.544,2.738,2.738,0,0,1-1.65-.38,1.84,1.84,0,0,1-.489-1.505V797.4a7.066,7.066,0,0,1-2.576,2.085,7.907,7.907,0,0,1-7.471-.254Zm8.033-2.43a4.546,4.546,0,0,0,1.469-1.179v-13.2a2.028,2.028,0,0,0-1.07-.616,5.891,5.891,0,0,0-1.759-.254,4.319,4.319,0,0,0-3.718,2.013q-1.4,2.013-1.4,6.438a10.052,10.052,0,0,0,1.2,5.5,3.642,3.642,0,0,0,3.156,1.795A4.46,4.46,0,0,0,654.547,796.8Z" transform="translate(-579.165 -770.162)" fill="#006d46"/>
          <path id="Path_326" data-name="Path 326" d="M671.939,799.193a11.624,11.624,0,0,1-2.34-7.671,12.356,12.356,0,0,1,1.215-5.658,8.6,8.6,0,0,1,3.427-3.663,10.092,10.092,0,0,1,5.114-1.269,7.685,7.685,0,0,1,5.585,1.9,7.448,7.448,0,0,1,2.031,5.422,15.9,15.9,0,0,1-.29,3.555H674.894a8.9,8.9,0,0,0,1.559,5.132,4.787,4.787,0,0,0,4.026,1.832,9.732,9.732,0,0,0,2.92-.472,7.89,7.89,0,0,0,2.375-1.124l.907,1.995a8.9,8.9,0,0,1-3.173,1.941,11.756,11.756,0,0,1-4.443.888Q674.277,802,671.939,799.193Zm9.955-9.557q.073-1.016.073-1.559,0-4.823-3.229-4.824a3.161,3.161,0,0,0-2.757,1.414q-.979,1.414-1.088,4.969Z" transform="translate(-583.427 -771.864)" fill="#006d46"/>
          <path id="Path_327" data-name="Path 327" d="M693.679,799.465l2.394-.29V784.885l-2.321-.653v-2.5l5.622-.761h.109l.907.725v.8l-.109,2.938h.109a5.991,5.991,0,0,1,1.2-1.8,9.171,9.171,0,0,1,2.375-1.886,6.161,6.161,0,0,1,3.1-.816,3.928,3.928,0,0,1,1.377.217v5.44a4.505,4.505,0,0,0-2.647-.761,7.658,7.658,0,0,0-4.606,1.414v11.9l4.207.327V801.6H693.679Z" transform="translate(-587.233 -771.864)" fill="#006d46"/>
        </g>
        <g id="Group_224" data-name="Group 224" transform="translate(22.765 160.365)">
          <path id="Path_328" data-name="Path 328" d="M572.677,817.428l-5.32-.887v-4.229H577.52q2.318,0,6-.273.885-.067,2.114-.136t2.865-.068q10.3,0,14.427,2.9t4.126,8.629a12.136,12.136,0,0,1-3.035,8.424,12.939,12.939,0,0,1-7.946,4.127q6.753-.067,10.607,3.069a10.641,10.641,0,0,1,3.854,8.732,14.3,14.3,0,0,1-4.979,11.391q-4.98,4.3-16.644,4.3-3.07,0-5.662-.205-.682,0-2.319-.1t-3.343-.1h-10.3V858.9l5.389-.683Zm12.96,17.053h3.206q4.159,0,6.207-2.591t2.047-7.3q0-4.5-2.115-6.549T587.956,816q-1.3,0-5.388.273v18.144Q583.318,834.482,585.637,834.481Zm2.933,24.624q5.8,0,8.39-2.728t2.592-7.913q0-4.978-2.353-7.129t-7.469-2.148q-5.73,0-7.162.136v19.167A19.2,19.2,0,0,0,588.571,859.105Z" transform="translate(-567.288 -811.699)" fill="#80bc00"/>
          <path id="Path_329" data-name="Path 329" d="M630.769,817.518l-5.8-.887V812.4H646.8v4.229l-6,.887v40.791l6,.75v4.024H624.971v-4.092l5.8-.683Z" transform="translate(-576.405 -811.788)" fill="#80bc00"/>
          <path id="Path_330" data-name="Path 330" d="M662.5,856.761q-5.525-6.957-5.526-18.963a31.017,31.017,0,0,1,2.9-13.779,21.424,21.424,0,0,1,8.151-9.14,22.711,22.711,0,0,1,12.073-3.206q11.255,0,16.883,6.651t5.627,18.588a31.672,31.672,0,0,1-2.967,14.018,21.925,21.925,0,0,1-20.5,12.79Q668.023,863.719,662.5,856.761Zm8.595-35.4q-3.138,5.525-3.138,16.371,0,10.711,3.035,16.269t8.7,5.559q5.525,0,8.663-5.833t3.138-16.814q0-10.641-3-15.859a9.481,9.481,0,0,0-8.663-5.218Q674.23,815.834,671.092,821.359Z" transform="translate(-581.463 -811.673)" fill="#80bc00"/>
        </g>
      </g>
    </g>
    <g id="Group_230" data-name="Group 230" transform="translate(849.302 577.05)">
      <g id="Group_229" data-name="Group 229">
        <g id="initial-5" data-name="initial" transform="translate(0 91.997)">
          <path id="Path_331" data-name="Path 331" d="M1104.756,791.877a65.914,65.914,0,0,1-7.76,6.629,65.054,65.054,0,0,0,16.882-6.015c1.526-.793,3.016-1.649,4.466-2.554-.566.98-1.159,1.94-1.777,2.888a65.584,65.584,0,0,1-74.02,26.984,103.9,103.9,0,0,1,4.087-9.884q.818-1.738,1.7-3.438c.334-.649.677-1.3,1.031-1.94q-1.182.365-2.354.757-3.872,1.291-7.6,2.868a104.8,104.8,0,0,0-9.5,4.584,65.12,65.12,0,0,1,12.6-27.43,65.369,65.369,0,0,1,51.629-25.2c.5,0,1,0,1.49.016a65.167,65.167,0,0,1,25.163,5.637q-.168.514-.347,1.024A65.379,65.379,0,0,1,1104.756,791.877Z" transform="translate(-999.593 -760.133)" fill="#80bc00"/>
          <path id="Path_332" data-name="Path 332" d="M1038.16,818.593a106.18,106.18,0,0,0-14.38,26.633q-.287.794-.57,1.6a105.028,105.028,0,0,0-4.525,17.981,106.957,106.957,0,0,0-21.61-21.63q-1.566-1.166-3.175-2.283c1.665.1,3.314.231,4.956.4a105.923,105.923,0,0,1,12.81,2.147,106.015,106.015,0,0,1,11.437-12.894q2.563-2.461,5.286-4.74a106.345,106.345,0,0,1,9.7-7.238C1038.108,818.581,1038.136,818.585,1038.16,818.593Z" transform="translate(-993.9 -769.37)" fill="#006d46"/>
        </g>
        <g id="Group_227" data-name="Group 227">
          <path id="Path_333" data-name="Path 333" d="M996.766,656.9l-2.794-.471v-2.249h11.606v2.249l-3.481.471v21.652l7.761-.327,2.285-6.782,2.938.4-1.124,9.284H993.9v-2.176l2.866-.363Z" transform="translate(-993.9 -651.39)" fill="#006d46"/>
          <path id="Path_334" data-name="Path 334" d="M1023.55,679.9a11.63,11.63,0,0,1-2.339-7.671,12.343,12.343,0,0,1,1.215-5.658,8.6,8.6,0,0,1,3.427-3.663,10.1,10.1,0,0,1,5.114-1.27,7.683,7.683,0,0,1,5.585,1.9,7.445,7.445,0,0,1,2.032,5.422,15.94,15.94,0,0,1-.29,3.554h-11.787a8.9,8.9,0,0,0,1.559,5.133,4.788,4.788,0,0,0,4.026,1.831,9.734,9.734,0,0,0,2.92-.472,7.891,7.891,0,0,0,2.375-1.124l.907,1.995a8.9,8.9,0,0,1-3.173,1.941,11.759,11.759,0,0,1-4.443.888Q1025.889,682.707,1023.55,679.9Zm9.956-9.557q.072-1.016.073-1.559,0-4.823-3.228-4.824a3.161,3.161,0,0,0-2.757,1.414q-.979,1.414-1.088,4.969Z" transform="translate(-998.217 -652.568)" fill="#006d46"/>
          <path id="Path_335" data-name="Path 335" d="M1048.135,671.7a19.418,19.418,0,0,1,8.578-1.7v-.834a6.938,6.938,0,0,0-.309-2.321,2.24,2.24,0,0,0-1.124-1.251,5.368,5.368,0,0,0-2.376-.417,10.457,10.457,0,0,0-3.191.453,23.792,23.792,0,0,0-2.937,1.179l-1.125-2.321a9.631,9.631,0,0,1,1.831-1.124,16.482,16.482,0,0,1,3.065-1.143,13.711,13.711,0,0,1,3.662-.489,10.693,10.693,0,0,1,4.37.725,4.391,4.391,0,0,1,2.266,2.321,10.977,10.977,0,0,1,.69,4.28v11.1h1.958v2.031a20.264,20.264,0,0,1-2.067.363,17.962,17.962,0,0,1-2.358.181,2.643,2.643,0,0,1-1.649-.363,1.963,1.963,0,0,1-.418-1.487v-.979a9.8,9.8,0,0,1-2.538,1.958,7.09,7.09,0,0,1-3.519.871,6.677,6.677,0,0,1-3.064-.707,5.474,5.474,0,0,1-2.231-2.067,6.156,6.156,0,0,1-.834-3.283A5.32,5.32,0,0,1,1048.135,671.7Zm6.873,7.562a6.792,6.792,0,0,0,1.7-1.106V672.2a8.7,8.7,0,0,0-4.878,1.106,3.332,3.332,0,0,0-1.614,2.847,3.837,3.837,0,0,0,.816,2.648,2.849,2.849,0,0,0,2.23.907A4.218,4.218,0,0,0,1055.008,679.257Z" transform="translate(-1001.948 -652.582)" fill="#006d46"/>
          <path id="Path_336" data-name="Path 336" d="M1073.165,679.935a7.362,7.362,0,0,1-2.829-3.318,13.253,13.253,0,0,1-1.052-5.622,12.347,12.347,0,0,1,1.251-5.568,9.651,9.651,0,0,1,3.681-4.008,10.979,10.979,0,0,1,5.84-1.487,11.4,11.4,0,0,1,2.611.29v-6.129l-3.554-.508v-2l7.471-.725h.109l1.015.762v26.766h1.958v2.067a21.952,21.952,0,0,1-4.316.544,2.742,2.742,0,0,1-1.65-.381,1.838,1.838,0,0,1-.489-1.505V678.1a7.078,7.078,0,0,1-2.576,2.085,7.908,7.908,0,0,1-7.471-.254Zm8.034-2.43a4.534,4.534,0,0,0,1.468-1.179v-13.2a2.022,2.022,0,0,0-1.069-.616,5.9,5.9,0,0,0-1.76-.254,4.316,4.316,0,0,0-3.717,2.013q-1.4,2.013-1.4,6.437a10.037,10.037,0,0,0,1.2,5.495,3.642,3.642,0,0,0,3.156,1.8A4.467,4.467,0,0,0,1081.2,677.505Z" transform="translate(-1005.815 -650.866)" fill="#006d46"/>
          <path id="Path_337" data-name="Path 337" d="M1098.589,679.9a11.626,11.626,0,0,1-2.339-7.671,12.345,12.345,0,0,1,1.215-5.658,8.6,8.6,0,0,1,3.427-3.663,10.1,10.1,0,0,1,5.114-1.27,7.684,7.684,0,0,1,5.585,1.9,7.441,7.441,0,0,1,2.031,5.422,15.951,15.951,0,0,1-.29,3.554h-11.787a8.885,8.885,0,0,0,1.559,5.133,4.788,4.788,0,0,0,4.026,1.831,9.724,9.724,0,0,0,2.919-.472,7.887,7.887,0,0,0,2.376-1.124l.907,1.995a8.914,8.914,0,0,1-3.173,1.941,11.76,11.76,0,0,1-4.443.888Q1100.928,682.707,1098.589,679.9Zm9.956-9.557q.072-1.016.072-1.559,0-4.823-3.228-4.824a3.16,3.16,0,0,0-2.757,1.414q-.979,1.414-1.088,4.969Z" transform="translate(-1010.077 -652.568)" fill="#006d46"/>
          <path id="Path_338" data-name="Path 338" d="M1120.33,680.169l2.394-.291V665.589l-2.322-.653v-2.5l5.622-.762h.109l.907.726v.8l-.109,2.938h.109a5.971,5.971,0,0,1,1.2-1.8,9.21,9.21,0,0,1,2.376-1.887,6.166,6.166,0,0,1,3.1-.816,3.938,3.938,0,0,1,1.378.218v5.44a4.5,4.5,0,0,0-2.648-.761,7.659,7.659,0,0,0-4.606,1.414v11.9l4.207.327v2.139H1120.33Z" transform="translate(-1013.883 -652.568)" fill="#006d46"/>
        </g>
        <g id="Group_228" data-name="Group 228" transform="translate(0.033 34.95)">
          <path id="Path_339" data-name="Path 339" d="M999.328,698.132l-5.32-.887v-4.229h10.163q2.319,0,6-.273.885-.067,2.114-.136t2.865-.068q10.3,0,14.427,2.9t4.127,8.629a12.138,12.138,0,0,1-3.035,8.424,12.946,12.946,0,0,1-7.947,4.127q6.753-.068,10.607,3.069a10.638,10.638,0,0,1,3.854,8.732,14.3,14.3,0,0,1-4.98,11.391q-4.98,4.3-16.644,4.3-3.069,0-5.661-.2-.683,0-2.32-.1t-3.342-.1h-10.3V739.6l5.388-.682Zm12.96,17.053h3.206q4.16,0,6.208-2.592t2.046-7.3q0-4.5-2.114-6.549t-7.026-2.046q-1.3,0-5.388.273v18.144Q1009.968,715.185,1012.288,715.185Zm2.933,24.624q5.8,0,8.39-2.729t2.592-7.913q0-4.977-2.353-7.128t-7.469-2.148q-5.731,0-7.162.136V739.2A19.229,19.229,0,0,0,1015.221,739.809Z" transform="translate(-993.939 -692.403)" fill="#80bc00"/>
          <path id="Path_340" data-name="Path 340" d="M1057.42,698.222l-5.8-.887v-4.229h21.828v4.229l-6,.887v40.79l6,.75v4.024h-21.828v-4.093l5.8-.682Z" transform="translate(-1003.056 -692.492)" fill="#80bc00"/>
          <path id="Path_341" data-name="Path 341" d="M1089.148,737.465q-5.525-6.959-5.525-18.963a31.027,31.027,0,0,1,2.9-13.778,21.437,21.437,0,0,1,8.151-9.141,22.718,22.718,0,0,1,12.074-3.205q11.255,0,16.883,6.651t5.627,18.588a31.682,31.682,0,0,1-2.967,14.018,21.929,21.929,0,0,1-20.5,12.789Q1094.673,744.422,1089.148,737.465Zm8.595-35.4q-3.138,5.525-3.137,16.371,0,10.71,3.035,16.268t8.7,5.559q5.524,0,8.662-5.832t3.138-16.814q0-10.641-3-15.859a9.48,9.48,0,0,0-8.663-5.218Q1100.88,696.538,1097.742,702.063Z" transform="translate(-1008.114 -692.377)" fill="#80bc00"/>
        </g>
      </g>
    </g>
    <g id="Group_234" data-name="Group 234" transform="translate(486.187 249.101)">
      <g id="Group_233" data-name="Group 233">
        <g id="initial-6" data-name="initial">
          <path id="Path_342" data-name="Path 342" d="M673.474,286.348a64.445,64.445,0,0,1-7.76,5.219A77.191,77.191,0,0,0,682.6,286.83c1.526-.624,3.016-1.3,4.466-2.011q-.849,1.158-1.777,2.274a56.314,56.314,0,0,1-8.593,8.353c-11.854,9.341-28.238,15.122-46.335,15.122a81.88,81.88,0,0,1-19.093-2.227,73.257,73.257,0,0,1,4.087-7.782c.546-.913,1.111-1.813,1.7-2.707.334-.511.677-1.023,1.031-1.528-.788.192-1.573.389-2.354.6q-3.872,1.017-7.6,2.259-4.881,1.623-9.5,3.61a42.45,42.45,0,0,1,1.936-5.835,48.993,48.993,0,0,1,10.664-15.765c11.982-12.076,30.656-19.84,51.629-19.84.5,0,1,0,1.49.013a80.213,80.213,0,0,1,25.163,4.439c-.112.269-.227.539-.347.806A51.577,51.577,0,0,1,673.474,286.348Z" transform="translate(-568.311 -261.351)" fill="#80bc00"/>
          <path id="Path_343" data-name="Path 343" d="M606.878,307.384a84.649,84.649,0,0,0-5.908,6.979,76.754,76.754,0,0,0-8.472,13.993c-.191.417-.382.838-.57,1.261a68.784,68.784,0,0,0-4.525,14.159,94.534,94.534,0,0,0-12.245-10.825,104.055,104.055,0,0,0-9.365-6.208q-1.566-.917-3.175-1.8c1.665.076,3.314.182,4.956.317q6.53.541,12.81,1.691A93.984,93.984,0,0,1,591.821,316.8q2.562-1.939,5.286-3.732a108.151,108.151,0,0,1,9.7-5.7C606.826,307.375,606.854,307.378,606.878,307.384Z" transform="translate(-562.618 -268.624)" fill="#006d46"/>
        </g>
        <g id="Group_231" data-name="Group 231" transform="translate(0 75.402)">
          <path id="Path_344" data-name="Path 344" d="M565.484,355.662l-2.794-.371v-1.771H574.3v1.771l-3.481.371v17.049l7.761-.257,2.285-5.34,2.938.314-1.124,7.311H562.618v-1.713l2.866-.285Z" transform="translate(-562.618 -351.321)" fill="#006d46"/>
          <path id="Path_345" data-name="Path 345" d="M592.268,373.768a7.919,7.919,0,0,1-2.339-6.041,8.034,8.034,0,0,1,1.215-4.455,7.766,7.766,0,0,1,3.427-2.884,12.317,12.317,0,0,1,5.114-1,9.033,9.033,0,0,1,5.586,1.5,5.248,5.248,0,0,1,2.032,4.27,9.976,9.976,0,0,1-.29,2.8H595.224a6.033,6.033,0,0,0,1.559,4.04,5.382,5.382,0,0,0,4.026,1.442,12.139,12.139,0,0,0,2.92-.371,8.958,8.958,0,0,0,2.375-.885l.907,1.571a9.518,9.518,0,0,1-3.173,1.527,14.55,14.55,0,0,1-4.443.7Q594.607,375.98,592.268,373.768Zm9.956-7.525q.072-.8.072-1.228,0-3.8-3.228-3.8a3.477,3.477,0,0,0-2.756,1.114,6.379,6.379,0,0,0-1.088,3.913Z" transform="translate(-566.935 -352.248)" fill="#006d46"/>
          <path id="Path_346" data-name="Path 346" d="M616.853,367.31a23.984,23.984,0,0,1,8.578-1.343v-.657a4.4,4.4,0,0,0-.309-1.828A1.988,1.988,0,0,0,624,362.5a6.65,6.65,0,0,0-2.376-.328,13.093,13.093,0,0,0-3.191.357,27.772,27.772,0,0,0-2.938.928l-1.125-1.828a10.373,10.373,0,0,1,1.831-.885,19.516,19.516,0,0,1,3.066-.9,17.237,17.237,0,0,1,3.662-.385,13.3,13.3,0,0,1,4.371.571,4.014,4.014,0,0,1,2.266,1.828,7.017,7.017,0,0,1,.69,3.37v8.739h1.958v1.6q-.726.143-2.067.285a22.863,22.863,0,0,1-2.358.142,3.219,3.219,0,0,1-1.649-.285,1.339,1.339,0,0,1-.418-1.17v-.771a9.861,9.861,0,0,1-2.539,1.542,8.655,8.655,0,0,1-3.518.685,8.191,8.191,0,0,1-3.064-.556,5.193,5.193,0,0,1-2.231-1.628,4.081,4.081,0,0,1-.834-2.586Q613.534,368.624,616.853,367.31Zm6.873,5.954a7.208,7.208,0,0,0,1.7-.871v-4.684a10.606,10.606,0,0,0-4.878.871,2.563,2.563,0,0,0-1.614,2.242,2.622,2.622,0,0,0,.816,2.085,3.272,3.272,0,0,0,2.23.714A5.158,5.158,0,0,0,623.726,373.264Z" transform="translate(-570.666 -352.259)" fill="#006d46"/>
          <path id="Path_347" data-name="Path 347" d="M641.883,373.8a6.459,6.459,0,0,1-2.829-2.613A8.545,8.545,0,0,1,638,366.758a8.054,8.054,0,0,1,1.251-4.383,8.653,8.653,0,0,1,3.681-3.156,13.362,13.362,0,0,1,5.84-1.17,14.311,14.311,0,0,1,2.611.228V353.45l-3.554-.4v-1.571l7.471-.571h.109l1.015.6v21.076h1.958v1.628a27.651,27.651,0,0,1-4.316.428,3.328,3.328,0,0,1-1.65-.3,1.279,1.279,0,0,1-.489-1.185v-.8A7.012,7.012,0,0,1,649.354,374a9.818,9.818,0,0,1-7.471-.2Zm8.034-1.914a4.509,4.509,0,0,0,1.468-.928v-10.4a2.182,2.182,0,0,0-1.069-.486,7.4,7.4,0,0,0-1.76-.2,4.708,4.708,0,0,0-3.717,1.585q-1.4,1.585-1.4,5.069a6.586,6.586,0,0,0,1.2,4.327,3.933,3.933,0,0,0,3.156,1.414A5.483,5.483,0,0,0,649.916,371.884Z" transform="translate(-574.533 -350.908)" fill="#006d46"/>
          <path id="Path_348" data-name="Path 348" d="M667.307,373.768a7.919,7.919,0,0,1-2.339-6.041,8.033,8.033,0,0,1,1.215-4.455,7.767,7.767,0,0,1,3.427-2.884,12.316,12.316,0,0,1,5.114-1,9.034,9.034,0,0,1,5.585,1.5,5.245,5.245,0,0,1,2.031,4.27,9.981,9.981,0,0,1-.29,2.8H670.263a6.025,6.025,0,0,0,1.559,4.04,5.381,5.381,0,0,0,4.026,1.442,12.127,12.127,0,0,0,2.919-.371,8.957,8.957,0,0,0,2.376-.885l.907,1.571a9.527,9.527,0,0,1-3.173,1.527,14.55,14.55,0,0,1-4.443.7Q669.646,375.98,667.307,373.768Zm9.956-7.525q.072-.8.072-1.228,0-3.8-3.228-3.8a3.476,3.476,0,0,0-2.757,1.114,6.38,6.38,0,0,0-1.088,3.913Z" transform="translate(-578.795 -352.248)" fill="#006d46"/>
          <path id="Path_349" data-name="Path 349" d="M689.048,373.981l2.394-.228V362.5l-2.322-.514v-1.97l5.622-.6h.109l.907.571v.628l-.109,2.314h.109a4.767,4.767,0,0,1,1.2-1.414,9.18,9.18,0,0,1,2.376-1.485,7.482,7.482,0,0,1,3.1-.642,4.924,4.924,0,0,1,1.378.171v4.284a5.415,5.415,0,0,0-2.648-.6,9.163,9.163,0,0,0-4.606,1.114v9.367l4.207.257v1.685H689.048Z" transform="translate(-582.601 -352.248)" fill="#006d46"/>
        </g>
        <g id="Group_232" data-name="Group 232" transform="translate(0.033 102.923)">
          <path id="Path_350" data-name="Path 350" d="M568.046,388.126l-5.32-.7V384.1h10.163q2.319,0,6-.216.885-.053,2.114-.107t2.865-.054q10.3,0,14.427,2.283a7.332,7.332,0,0,1,4.127,6.794,8.46,8.46,0,0,1-3.035,6.634,14.339,14.339,0,0,1-7.947,3.25q6.753-.053,10.607,2.416a7.751,7.751,0,0,1,3.854,6.875,10.38,10.38,0,0,1-4.98,8.97q-4.98,3.383-16.644,3.384-3.069,0-5.661-.162-.683,0-2.32-.08t-3.343-.081h-10.3v-3.223l5.388-.537Zm12.96,13.428h3.206q4.16,0,6.208-2.041a7.76,7.76,0,0,0,2.046-5.747q0-3.545-2.114-5.157T583.325,387q-1.3,0-5.388.216V401.5Q578.686,401.555,581.006,401.554Zm2.933,19.39q5.8,0,8.39-2.149a7.631,7.631,0,0,0,2.592-6.23q0-3.92-2.353-5.613t-7.469-1.691q-5.731,0-7.162.107v15.094A24.208,24.208,0,0,0,583.939,420.944Z" transform="translate(-562.657 -383.615)" fill="#80bc00"/>
          <path id="Path_351" data-name="Path 351" d="M626.138,388.2l-5.8-.7v-3.33h21.828v3.33l-6,.7v32.119l6,.591v3.169H620.339v-3.223l5.8-.537Z" transform="translate(-571.774 -383.686)" fill="#80bc00"/>
          <path id="Path_352" data-name="Path 352" d="M657.866,419.1q-5.525-5.479-5.525-14.932a20.153,20.153,0,0,1,2.9-10.85,19.049,19.049,0,0,1,8.151-7.2,27.548,27.548,0,0,1,12.073-2.524q11.255,0,16.883,5.236t5.628,14.636a20.58,20.58,0,0,1-2.967,11.038,19.826,19.826,0,0,1-8.288,7.439,27.19,27.19,0,0,1-12.21,2.632Q663.391,424.577,657.866,419.1Zm8.595-27.877q-3.138,4.351-3.137,12.891,0,8.434,3.035,12.81a10.643,10.643,0,0,0,17.359-.215q3.137-4.593,3.138-13.24,0-8.378-3-12.488a11.059,11.059,0,0,0-17.394.242Z" transform="translate(-576.832 -383.595)" fill="#80bc00"/>
        </g>
      </g>
    </g>
    <text id="Change_the_logo_colors" data-name="Change the
logo colors" transform="translate(177.925 429.746)" font-size="22" font-family="OpenSans-Regular, Open Sans"><tspan x="-58.421" y="0">Change the</tspan><tspan x="-55.999" y="26">logo colors</tspan></text>
    <text id="Modify_or_replace_the_logo_s_typography" data-name="Modify or replace the
logo’s typography" transform="translate(189.05 808.281)" font-size="22" font-family="OpenSans-Regular, Open Sans"><tspan x="-109.592" y="0">Modify or replace the</tspan><tspan x="-90.551" y="26">logo’s typography</tspan></text>
    <text id="Modify_size_of_logo_elements" data-name="Modify size of 
logo elements" transform="translate(467.05 808.281)" font-size="22" font-family="OpenSans-Regular, Open Sans"><tspan x="0" y="0">Modify size of </tspan><tspan x="0" y="26">logo elements</tspan></text>
    <text id="Modify_the_composition" data-name="Modify the 
composition" transform="translate(905.471 808.281)" font-size="22" font-family="OpenSans-Regular, Open Sans"><tspan x="-57.89" y="0">Modify the </tspan><tspan x="-63.588" y="26">composition</tspan></text>
    <text id="Stretch_or_Deform" data-name="Stretch or
Deform" transform="translate(541.138 429.746)" font-size="22" font-family="OpenSans-Regular, Open Sans"><tspan x="-50.445" y="0">Stretch or</tspan><tspan x="-39.284" y="26">Deform</tspan></text>
    <text id="Tilt_the_logo" data-name="Tilt the logo" transform="translate(904.839 443.891)" font-size="22" font-family="OpenSans-Regular, Open Sans"><tspan x="-60.151" y="0">Tilt the logo</tspan></text>
  </g>
</svg>
